<?xml version="1.0" standalone="no"?>
<!DOCTYPE svg PUBLIC "-//W3C//DTD SVG 20010904//EN"
 "http://www.w3.org/TR/2001/REC-SVG-20010904/DTD/svg10.dtd">
<svg version="1.0" xmlns="http://www.w3.org/2000/svg"
 width="864.000000pt" height="864.000000pt" viewBox="0 0 864.000000 864.000000"
 preserveAspectRatio="xMidYMid meet">
<metadata>
Created by potrace 1.11, written by Peter Selinger 2001-2013
</metadata>
<g transform="translate(0.000000,864.000000) scale(0.100000,-0.100000)"
fill="#000000" stroke="none">
<path d="M6748 8235 c-1 -1 -52 -5 -113 -9 -60 -3 -137 -10 -170 -16 -33 -5
-76 -12 -95 -15 -19 -3 -59 -13 -90 -22 -30 -10 -57 -18 -60 -18 -50 -14 -67
-19 -75 -24 -5 -3 -12 -6 -15 -7 -3 0 -18 -6 -35 -13 -43 -17 -60 -23 -60 -20
0 11 -303 -168 -360 -213 -103 -82 -252 -227 -306 -298 -18 -25 -38 -50 -44
-56 -5 -6 -15 -20 -22 -30 -7 -11 -28 -43 -48 -71 -19 -29 -35 -57 -35 -63 0
-5 -4 -10 -10 -10 -5 0 -10 -6 -10 -14 0 -7 -9 -25 -21 -40 -11 -14 -17 -26
-14 -26 4 0 1 -10 -7 -22 -8 -13 -28 -57 -45 -98 -43 -106 -46 -114 -48 -125
-2 -5 -12 -41 -23 -80 -57 -196 -78 -418 -57 -630 9 -102 13 -130 15 -130 1 0
4 -13 6 -30 26 -176 133 -450 235 -603 16 -24 29 -45 29 -48 0 -6 99 -140 129
-174 165 -189 368 -342 591 -449 41 -19 77 -36 80 -37 8 -1 43 -15 65 -25 26
-11 144 -48 170 -52 11 -2 27 -7 35 -10 8 -3 33 -8 55 -11 22 -2 47 -7 55 -10
71 -26 459 -26 570 0 14 3 39 7 55 9 72 9 357 100 363 116 2 5 10 9 17 9 16 0
164 76 220 114 132 88 208 149 305 248 52 53 100 103 105 110 128 164 254 366
238 382 -4 3 -1 6 5 6 7 0 12 4 12 9 0 5 8 26 17 47 9 22 18 44 19 49 1 6 11
33 22 60 18 48 59 200 68 251 2 13 6 36 9 52 25 135 25 396 0 542 -2 14 -7 41
-10 60 -22 130 -96 347 -162 474 -40 77 -148 245 -185 287 -13 15 -42 49 -65
76 -190 224 -416 380 -708 488 -55 20 -106 38 -115 40 -8 2 -33 8 -55 13 -42
12 -76 19 -135 28 -19 3 -46 7 -60 10 -14 2 -65 6 -115 10 -49 3 -95 7 -102 9
-6 2 -13 2 -15 0z"/>
<path d="M2848 7965 c-2 -2 -19 -7 -37 -10 -89 -15 -96 -25 -265 -325 -20 -36
-40 -72 -45 -80 -6 -8 -22 -37 -37 -65 -14 -27 -32 -57 -38 -65 -6 -8 -21 -33
-33 -55 -11 -22 -30 -56 -42 -75 -11 -19 -34 -61 -52 -94 -17 -33 -34 -55 -39
-50 -5 5 -45 74 -91 154 -45 80 -89 159 -99 175 -76 133 -146 257 -164 290
-12 22 -24 42 -27 45 -3 3 -13 19 -22 35 -36 71 -88 107 -159 111 -61 3 -108
-14 -146 -53 -15 -15 -80 -120 -144 -233 -64 -113 -125 -221 -137 -240 -11
-19 -28 -51 -38 -70 -9 -19 -23 -41 -30 -48 -7 -7 -13 -17 -13 -22 0 -5 -11
-25 -25 -45 -13 -21 -32 -54 -42 -76 -9 -21 -20 -39 -25 -39 -4 0 -8 -4 -8 -9
0 -5 -25 -53 -56 -107 -31 -55 -66 -117 -79 -139 -12 -22 -81 -143 -154 -269
-72 -126 -131 -233 -131 -238 0 -4 -4 -8 -8 -8 -4 0 -14 -16 -21 -35 -7 -19
-17 -35 -22 -35 -5 0 -9 -4 -9 -9 0 -5 -52 -100 -115 -211 -63 -112 -115 -207
-115 -211 0 -5 -4 -9 -9 -9 -5 0 -13 -10 -18 -23 -10 -28 -205 -370 -215 -377
-7 -6 -30 -62 -28 -69 1 -2 -4 -7 -12 -12 -9 -6 -13 -32 -13 -87 0 -73 2 -80
34 -120 50 -64 94 -82 201 -82 25 0 53 0 63 0 9 0 25 0 35 0 9 0 41 0 70 0 30
0 58 -2 63 -6 5 -3 9 0 9 7 0 9 3 9 14 0 9 -8 16 -8 20 -2 4 5 18 6 34 2 15
-4 38 -5 52 -1 13 3 46 3 72 0 28 -4 48 -2 48 3 0 5 6 4 14 -2 9 -8 16 -8 20
-2 4 5 18 6 34 2 15 -4 38 -5 52 -1 14 3 34 5 45 4 35 -4 122 -6 215 -5 8 1
46 1 83 2 38 0 71 -2 74 -4 2 -3 17 -2 31 3 15 4 37 3 50 -1 12 -5 22 -4 22 1
0 5 12 5 29 0 15 -4 33 -5 40 -1 6 4 33 5 59 1 27 -3 60 -3 74 1 14 4 31 3 38
-1 7 -4 24 -5 38 -1 14 4 47 4 74 1 28 -4 48 -2 48 3 0 5 6 4 14 -2 9 -8 16
-8 20 -2 4 5 18 6 34 2 15 -4 38 -5 52 -1 13 3 46 3 72 0 28 -4 48 -2 48 3 0
5 6 4 14 -2 9 -8 16 -8 20 -2 4 5 18 6 34 2 15 -4 38 -5 52 -1 14 3 36 5 50 3
46 -5 91 -5 97 0 3 3 16 2 29 -3 14 -6 24 -6 24 0 0 5 12 5 29 0 15 -4 33 -5
39 -1 5 3 47 4 91 1 45 -3 81 -1 81 4 0 5 6 3 14 -3 9 -8 16 -8 20 -2 4 5 18
6 34 2 15 -4 38 -5 52 -1 13 3 46 3 71 0 26 -3 55 -3 65 1 11 3 29 3 42 -2 14
-6 22 -5 22 2 0 8 4 8 14 0 9 -8 16 -8 20 -2 4 6 18 6 35 1 16 -4 32 -6 35 -3
5 5 45 5 169 0 26 -1 47 2 47 7 0 5 6 3 14 -3 9 -8 16 -8 20 -2 4 5 18 6 34 2
15 -4 38 -5 52 -1 13 3 46 3 71 0 26 -3 55 -3 65 1 11 3 29 3 42 -2 14 -6 22
-5 22 2 0 8 4 8 14 0 9 -8 16 -8 20 -2 4 6 18 6 35 1 16 -4 32 -6 35 -3 5 6
96 5 131 -1 11 -2 32 0 46 4 15 4 32 4 39 0 7 -4 24 -5 38 -1 14 4 47 4 74 1
28 -4 48 -2 48 3 0 5 6 4 14 -2 9 -8 16 -8 20 -2 4 6 18 6 35 1 16 -4 32 -6
35 -3 3 3 29 5 57 4 124 -2 215 91 211 216 -1 35 -13 60 -72 163 -21 36 -39
70 -40 75 -1 6 -7 17 -14 25 -6 8 -18 29 -26 45 -8 17 -18 32 -21 35 -3 3 -19
30 -36 60 -17 30 -40 71 -51 90 -12 19 -25 42 -29 50 -4 8 -20 38 -36 65 -16
28 -49 84 -72 125 -23 41 -61 107 -83 147 -23 39 -50 87 -61 105 -32 57 -183
321 -204 358 -11 19 -45 80 -77 135 -32 55 -68 118 -80 140 -12 22 -49 86 -81
142 -33 56 -59 107 -59 112 0 6 -3 11 -7 11 -5 0 -13 10 -19 23 -21 43 -77
142 -96 169 -10 14 -18 28 -18 31 0 3 -27 51 -60 107 -33 56 -60 103 -60 105
0 2 -14 28 -31 57 -18 29 -41 69 -52 88 -60 107 -73 127 -101 153 -17 15 -42
30 -56 33 -14 3 -32 9 -41 14 -9 5 -19 7 -21 5z"/>
<path d="M710 3872 c-68 -8 -170 -61 -170 -88 0 -4 -6 -15 -14 -23 -8 -9 -18
-36 -23 -61 -5 -25 -9 -660 -8 -1456 0 -1383 1 -1411 20 -1454 25 -56 55 -85
113 -113 l47 -22 1430 1 1430 0 53 29 c28 15 50 30 48 32 -2 3 5 16 17 29 54
61 52 6 52 1540 -1 1389 -1 1420 -20 1454 -44 79 -93 116 -168 127 -42 6
-2760 11 -2807 5z"/>
<path d="M5008 3851 c-24 -8 -49 -20 -56 -28 -7 -7 -16 -13 -20 -13 -14 0 -61
-86 -70 -128 -16 -69 1 -119 80 -240 10 -15 21 -34 25 -42 3 -8 9 -17 13 -20
8 -7 90 -140 90 -146 0 -3 5 -10 10 -17 20 -23 90 -138 90 -147 0 -4 3 -10 8
-12 4 -1 63 -93 131 -203 68 -110 134 -216 146 -235 90 -140 115 -182 115
-190 0 -6 3 -10 8 -10 6 0 19 -20 57 -85 26 -44 54 -89 137 -221 48 -76 83
-141 79 -144 -5 -3 -16 -21 -26 -40 -9 -19 -26 -48 -36 -65 -19 -30 -344 -599
-402 -705 -16 -30 -33 -59 -37 -65 -4 -5 -19 -30 -32 -55 -14 -25 -63 -110
-109 -190 -65 -114 -83 -153 -82 -183 0 -39 30 -76 62 -78 9 -1 358 -2 775 -3
497 -1 763 2 768 9 5 5 21 30 37 55 16 25 60 96 100 158 39 62 71 115 71 118
0 3 5 10 10 17 11 12 215 336 250 397 11 19 55 90 98 158 42 67 124 198 181
290 57 92 128 203 156 247 28 44 60 96 71 115 10 19 21 37 25 40 3 3 38 59 78
125 41 66 78 123 83 126 5 3 9 9 9 12 0 7 48 88 106 178 17 27 71 113 120 191
100 163 128 208 143 225 5 7 10 14 10 17 0 4 142 235 170 276 52 77 138 225
134 231 -2 4 0 10 5 14 6 3 9 34 7 69 -5 96 -60 169 -149 198 -22 7 -570 11
-1715 12 -1424 1 -1689 -1 -1724 -13z"/>
</g>
</svg>
