<svg version="1" xmlns="http://www.w3.org/2000/svg" width="1152" height="1152" viewBox="0 0 864.000000 864.000000"><path d="M674.8 40.5c-.1.1-5.2.5-11.3.9-6 .3-13.7 1-17 1.6-3.3.5-7.6 1.2-9.5 1.5-1.9.3-5.9 1.3-9 2.2-3 1-5.7 1.8-6 1.8-5 1.4-6.7 1.9-7.5 2.4-.5.3-1.2.6-1.5.7-.3 0-1.8.6-3.5 1.3-4.3 1.7-6 2.3-6 2 0-1.1-30.3 16.8-36 21.3-10.3 8.2-25.2 22.7-30.6 29.8-1.8 2.5-3.8 5-4.4 5.6-.5.6-1.5 2-2.2 3-.7 1.1-2.8 4.3-4.8 7.1-1.9 2.9-3.5 5.7-3.5 6.3 0 .5-.4 1-1 1-.5 0-1 .6-1 1.4 0 .7-.9 2.5-2.1 4-1.1 1.4-1.7 2.6-1.4 2.6.4 0 .1 1-.7 2.2-.8 1.3-2.8 5.7-4.5 9.8-4.3 10.6-4.6 11.4-4.8 12.5-.2.5-1.2 4.1-2.3 8-5.7 19.6-7.8 41.8-5.7 63 .9 10.2 1.3 13 1.5 13 .1 0 .4 1.3.6 3 2.6 17.6 13.3 45 23.5 60.3 1.6 2.4 2.9 4.5 2.9 4.8 0 .6 9.9 14 12.9 17.4 16.5 18.9 36.8 34.2 59.1 44.9 4.1 1.9 7.7 3.6 8 3.7.8.1 4.3 1.5 6.5 2.5 2.6 1.1 14.4 4.8 17 5.2 1.1.2 2.7.7 3.5 1 .8.3 3.3.8 5.5 1.1 2.2.2 4.7.7 5.5 1 7.1 2.6 45.9 2.6 57 0 1.4-.3 3.9-.7 5.5-.9 7.2-.9 35.7-10 36.3-11.6.2-.5 1-.9 1.7-.9 1.6 0 16.4-7.6 22-11.4 13.2-8.8 20.8-14.9 30.5-24.8 5.2-5.3 10-10.3 10.5-11 12.8-16.4 25.4-36.6 23.8-38.2-.4-.3-.1-.6.5-.6.7 0 1.2-.4 1.2-.9s.8-2.6 1.7-4.7c.9-2.2 1.8-4.4 1.9-4.9.1-.6 1.1-3.3 2.2-6 1.8-4.8 5.9-20 6.8-25.1.2-1.3.6-3.6.9-5.2 2.5-13.5 2.5-39.6 0-54.2-.2-1.4-.7-4.1-1-6-2.2-13-9.6-34.7-16.2-47.4-4-7.7-14.8-24.5-18.5-28.7-1.3-1.5-4.2-4.9-6.5-7.6-19-22.4-41.6-38-70.8-48.8-5.5-2-10.6-3.8-11.5-4-.8-.2-3.3-.8-5.5-1.3-4.2-1.2-7.6-1.9-13.5-2.8-1.9-.3-4.6-.7-6-1-1.4-.2-6.5-.6-11.5-1-4.9-.3-9.5-.7-10.2-.9-.6-.2-1.3-.2-1.5 0zM284.8 67.5c-.2.2-1.9.7-3.7 1-8.9 1.5-9.6 2.5-26.5 32.5-2 3.6-4 7.2-4.5 8-.6.8-2.2 3.7-3.7 6.5-1.4 2.7-3.2 5.7-3.8 6.5-.6.8-2.1 3.3-3.3 5.5-1.1 2.2-3 5.6-4.2 7.5-1.1 1.9-3.4 6.1-5.2 9.4-1.7 3.3-3.4 5.5-3.9 5s-4.5-7.4-9.1-15.4c-4.5-8-8.9-15.9-9.9-17.5-7.6-13.3-14.6-25.7-16.4-29-1.2-2.2-2.4-4.2-2.7-4.5-.3-.3-1.3-1.9-2.2-3.5-3.6-7.1-8.8-10.7-15.9-11.1-6.1-.3-10.8 1.4-14.6 5.3-1.5 1.5-8 12-14.4 23.3s-12.5 22.1-13.7 24c-1.1 1.9-2.8 5.1-3.8 7-.9 1.9-2.3 4.1-3 4.8-.7.7-1.3 1.7-1.3 2.2 0 .5-1.1 2.5-2.5 4.5-1.3 2.1-3.2 5.4-4.2 7.6-.9 2.1-2 3.9-2.5 3.9-.4 0-.8.4-.8.9s-2.5 5.3-5.6 10.7c-3.1 5.5-6.6 11.7-7.9 13.9-1.2 2.2-8.1 14.3-15.4 26.9C72.9 216 67 226.7 67 227.2c0 .4-.4.8-.8.8s-1.4 1.6-2.1 3.5c-.7 1.9-1.7 3.5-2.2 3.5-.5 0-.9.4-.9.9s-5.2 10-11.5 21.1C43.2 268.2 38 277.7 38 278.1c0 .5-.4.9-.9.9s-1.3 1-1.8 2.3c-1 2.8-20.5 37-21.5 37.7-.7.6-3 6.2-2.8 6.9.1.2-.4.7-1.2 1.2-.9.6-1.3 3.2-1.3 8.7 0 7.3.2 8 3.4 12 5 6.4 9.4 8.2 20.1 8.2h16.8c3 0 5.8.2 6.3.6.5.3.9 0 .9-.7 0-.9.3-.9 1.4 0 .9.8 1.6.8 2 .2.4-.5 1.8-.6 3.4-.2 1.5.4 3.8.5 5.2.1 1.3-.3 4.6-.3 7.2 0 2.8.4 4.8.2 4.8-.3s.6-.4 1.4.2c.9.8 1.6.8 2 .2.4-.5 1.8-.6 3.4-.2 1.5.4 3.8.5 5.2.1 1.4-.3 3.4-.5 4.5-.4 3.5.4 12.2.6 21.5.5.8-.1 4.6-.1 8.3-.2 3.8 0 7.1.2 7.4.4.2.3 1.7.2 3.1-.3 1.5-.4 3.7-.3 5 .1 1.2.5 2.2.4 2.2-.1s1.2-.5 2.9 0c1.5.4 3.3.5 4 .1.6-.4 3.3-.5 5.9-.1 2.7.3 6 .3 7.4-.1 1.4-.4 3.1-.3 3.8.1.7.4 2.4.5 3.8.1s4.7-.4 7.4-.1c2.8.4 4.8.2 4.8-.3s.6-.4 1.4.2c.9.8 1.6.8 2 .2.4-.5 1.8-.6 3.4-.2 1.5.4 3.8.5 5.2.1 1.3-.3 4.6-.3 7.2 0 2.8.4 4.8.2 4.8-.3s.6-.4 1.4.2c.9.8 1.6.8 2 .2.4-.5 1.8-.6 3.4-.2 1.5.4 3.8.5 5.2.1 1.4-.3 3.6-.5 5-.3 4.6.5 9.1.5 9.7 0 .3-.3 1.6-.2 2.9.3 1.4.6 2.4.6 2.4 0 0-.5 1.2-.5 2.9 0 1.5.4 3.3.5 3.9.1.5-.3 4.7-.4 9.1-.1 4.5.3 8.1.1 8.1-.4s.6-.3 1.4.3c.9.8 1.6.8 2 .2.4-.5 1.8-.6 3.4-.2 1.5.4 3.8.5 5.2.1 1.3-.3 4.6-.3 7.1 0 2.6.3 5.5.3 6.5-.1 1.1-.3 2.9-.3 4.2.2 1.4.6 2.2.5 2.2-.2 0-.8.4-.8 1.4 0 .9.8 1.6.8 2 .2.4-.6 1.8-.6 3.5-.1 1.6.4 3.2.6 3.5.3.5-.5 4.5-.5 16.9 0 2.6.1 4.7-.2 4.7-.7 0-.5.6-.3 1.4.3.9.8 1.6.8 2 .2.4-.5 1.8-.6 3.4-.2 1.5.4 3.8.5 5.2.1 1.3-.3 4.6-.3 7.1 0 2.6.3 5.5.3 6.5-.1 1.1-.3 2.9-.3 4.2.2 1.4.6 2.2.5 2.2-.2 0-.8.4-.8 1.4 0 .9.8 1.6.8 2 .2.4-.6 1.8-.6 3.5-.1 1.6.4 3.2.6 3.5.3.5-.6 9.6-.5 13.1.1 1.1.2 3.2 0 4.6-.4 1.5-.4 3.2-.4 3.9 0 .7.4 2.4.5 3.8.1s4.7-.4 7.4-.1c2.8.4 4.8.2 4.8-.3s.6-.4 1.4.2c.9.8 1.6.8 2 .2.4-.6 1.8-.6 3.5-.1 1.6.4 3.2.6 3.5.3.3-.3 2.9-.5 5.7-.4 12.4.2 21.5-9.1 21.1-21.6-.1-3.5-1.3-6-7.2-16.3-2.1-3.6-3.9-7-4-7.5-.1-.6-.7-1.7-1.4-2.5-.6-.8-1.8-2.9-2.6-4.5-.8-1.7-1.8-3.2-2.1-3.5-.3-.3-1.9-3-3.6-6-1.7-3-4-7.1-5.1-9-1.2-1.9-2.5-4.2-2.9-5-.4-.8-2-3.8-3.6-6.5-1.6-2.8-4.9-8.4-7.2-12.5s-6.1-10.7-8.3-14.7c-2.3-3.9-5-8.7-6.1-10.5-3.2-5.7-18.3-32.1-20.4-35.8-1.1-1.9-4.5-8-7.7-13.5s-6.8-11.8-8-14c-1.2-2.2-4.9-8.6-8.1-14.2-3.3-5.6-5.9-10.7-5.9-11.2 0-.6-.3-1.1-.7-1.1-.5 0-1.3-1-1.9-2.3-2.1-4.3-7.7-14.2-9.6-16.9-1-1.4-1.8-2.8-1.8-3.1 0-.3-2.7-5.1-6-10.7s-6-10.3-6-10.5c0-.2-1.4-2.8-3.1-5.7-1.8-2.9-4.1-6.9-5.2-8.8-6-10.7-7.3-12.7-10.1-15.3-1.7-1.5-4.2-3-5.6-3.3-1.4-.3-3.2-.9-4.1-1.4-.9-.5-1.9-.7-2.1-.5zM71 476.8c-6.8.8-17 6.1-17 8.8 0 .4-.6 1.5-1.4 2.3-.8.9-1.8 3.6-2.3 6.1-.5 2.5-.9 66-.8 145.6 0 138.3.1 141.1 2 145.4 2.5 5.6 5.5 8.5 11.3 11.3l4.7 2.2 143-.1h143l5.3-2.9c2.8-1.5 5-3 4.8-3.2-.2-.3.5-1.6 1.7-2.9 5.4-6.1 5.2-.6 5.2-154-.1-138.9-.1-142-2-145.4-4.4-7.9-9.3-11.6-16.8-12.7-4.2-.6-276-1.1-280.7-.5zM500.8 478.9c-2.4.8-4.9 2-5.6 2.8-.7.7-1.6 1.3-2 1.3-1.4 0-6.1 8.6-7 12.8-1.6 6.9.1 11.9 8 24 1 1.5 2.1 3.4 2.5 4.2.3.8.9 1.7 1.3 2 .8.7 9 14 9 14.6 0 .3.5 1 1 1.7 2 2.3 9 13.8 9 14.7 0 .4.3 1 .8 1.2.4.1 6.3 9.3 13.1 20.3s13.4 21.6 14.6 23.5c9 14 11.5 18.2 11.5 19 0 .6.3 1 .8 1 .6 0 1.9 2 5.7 8.5 2.6 4.4 5.4 8.9 13.7 22.1 4.8 7.6 8.3 14.1 7.9 14.4-.5.3-1.6 2.1-2.6 4-.9 1.9-2.6 4.8-3.6 6.5-1.9 3-34.4 59.9-40.2 70.5-1.6 3-3.3 5.9-3.7 6.5-.4.5-1.9 3-3.2 5.5-1.4 2.5-6.3 11-10.9 19-6.5 11.4-8.3 15.3-8.2 18.3 0 3.9 3 7.6 6.2 7.8.9.1 35.8.2 77.5.3 49.7.1 76.3-.2 76.8-.9.5-.5 2.1-3 3.7-5.5s6-9.6 10-15.8c3.9-6.2 7.1-11.5 7.1-11.8 0-.3.5-1 1-1.7 1.1-1.2 21.5-33.6 25-39.7 1.1-1.9 5.5-9 9.8-15.8 4.2-6.7 12.4-19.8 18.1-29 5.7-9.2 12.8-20.3 15.6-24.7 2.8-4.4 6-9.6 7.1-11.5 1-1.9 2.1-3.7 2.5-4 .3-.3 3.8-5.9 7.8-12.5 4.1-6.6 7.8-12.3 8.3-12.6.5-.3.9-.9.9-1.2 0-.7 4.8-8.8 10.6-17.8 1.7-2.7 7.1-11.3 12-19.1 10-16.3 12.8-20.8 14.3-22.5.5-.7 1-1.4 1-1.7 0-.4 14.2-23.5 17-27.6 5.2-7.7 13.8-22.5 13.4-23.1-.2-.4 0-1 .5-1.4.6-.3.9-3.4.7-6.9-.5-9.6-6-16.9-14.9-19.8-2.2-.7-57-1.1-171.5-1.2-142.4-.1-168.9.1-172.4 1.3z"/></svg>