<svg version="1.1" id="Layer_1_moxy_outline" xmlns="http://www.w3.org/2000/svg" x="0" y="0" viewBox="0 0 189 40" xml:space="preserve"><path d="M55.5 34.1L37.8 4.2c-.5-.9-1.5-1.5-2.5-1.5s-2 .5-2.5 1.4l-4.7 8-4.7-8c-.5-.9-1.5-1.5-2.5-1.5s-2 .5-2.5 1.4L.4 34.1c-.5.9-.6 2 0 3 .5.9 1.5 1.5 2.6 1.5h50c1.1 0 2-.6 2.6-1.5.5-1 .5-2.1-.1-3zM3 36.3c-.4 0-.6-.2-.6-.4-.1-.1-.2-.4 0-.7L20.1 5.4c.2-.3.5-.4.6-.4s.4 0 .6.4l5.4 9-13 21.9H3zm13.2 0L28 16.6l11.7 19.7H16.2zm37.4-.3c-.1.1-.3.4-.6.4H42.3l-13-21.9 5.4-9c.2-.3.5-.4.6-.4.2 0 .4 0 .6.4l17.7 29.9c.2.1.1.4 0 .6zM187.8 2.6c-.5-1-1.5-1.5-2.6-1.5h-36.4c-1.1 0-2.1.6-2.6 1.5-.5 1-.5 2.1 0 3.1l11.4 18.2-7.2 12.8c-.3.5-.3 1.2.1 1.7.3.4.8.7 1.4.7H167l20.8-33.4c.5-1 .6-2.1 0-3.1zm-22.7 34.2h-12.2c-.1 0-.1-.1-.1-.1l5.8-10.3c0-.1.1-.1.2 0l6.3 10.4c.2-.1.1 0 0 0zm20.8-32.3L167 34.8 148.1 4.5c-.2-.3-.1-.6 0-.8.1-.1.3-.4.7-.4h36.4c.4 0 .6.3.7.4 0 .2.2.5 0 .8zm-49.1-3.2h-31.1c-.7 0-1.4.2-1.9.6-.1 0-.2.1-.3.2l-.1.1c-.6.6-.9 1.4-.9 2.2v31.1c0 .7.2 1.4.6 1.9.2.3.5.6.9.8.5.3 1.1.5 1.7.5h31.1c.9 0 1.7-.4 2.2-.9 0 0 0-.1.1-.1l.1-.1c.5-.6.8-1.3.8-2.1v-31c0-1.7-1.4-3.2-3.2-3.2zm-.5 2.3l-14.8 14.9-14.9-14.9h29.7zm-31.5 31.5V5l15.1 15.1-15.1 15zm1.7 1.4l14.9-14.9 15 14.9h-29.9zm31.3-1.7L123 20l14.7-14.7v29.5h.1zM76.1.5C65.3.5 56.6 9.2 56.6 20s8.7 19.5 19.5 19.5S95.6 30.8 95.6 20 86.9.5 76.1.5zM58.9 20c0-9.5 7.7-17.2 17.2-17.2 4.2 0 8 1.5 10.9 3.9L64 32.2c-3.1-3.1-5.1-7.4-5.1-12.2zm17.2 17.2c-3.9 0-7.5-1.3-10.4-3.5l23-25.4c2.8 3.1 4.6 7.2 4.6 11.7 0 9.5-7.7 17.2-17.2 17.2z" fill="#fff"></path></svg>